<svg width="48" height="48" viewBox="0 0 48 48" fill="none" xmlns="http://www.w3.org/2000/svg">
<path d="M12.055 24.47C12.2082 24.9636 12.5026 25.292 12.8621 25.6515C13.39 25.6515 13.802 26.0643 14.3224 26.1799C14.8731 26.3023 15.3827 26.5137 15.9657 26.625C16.5187 26.7307 17.0862 26.6999 17.6464 26.6999C18.072 26.6999 18.5322 26.8277 18.9611 26.8663C19.6939 26.9324 20.3897 27.0679 21.1327 27.0744C21.7983 27.0801 22.4641 27.0744 23.1297 27.0744C23.8199 27.0744 24.5116 27.0881 25.2015 27.0702C27.1375 27.0199 29.0711 26.8913 31.0009 26.7707C31.9953 26.7085 32.9861 26.6802 33.9796 26.625C34.8725 26.5754 35.7505 25.8537 36.6755 25.8013C36.6755 25.5407 36.5911 25.4498 36.5299 25.2355C36.4751 25.0436 36.5257 24.7658 36.5257 24.5657C36.5257 24.0774 36.5761 23.5933 36.376 23.1429C36.1583 22.6531 35.9528 22.3007 35.5481 21.9364C35.2211 21.6421 34.9118 21.417 34.5621 21.1585C34.3962 21.0359 33.8644 20.9794 34.0254 20.8506C34.285 20.6429 34.5038 19.9028 34.5038 19.5859C34.5038 18.8252 34.3448 18.2656 33.8299 17.6805C33.0006 16.7382 31.7796 16.4407 30.5849 16.4407C30.2844 16.4407 30.0794 16.5674 30.2021 16.2868C30.3285 15.9979 30.3103 15.7201 30.3103 15.409C30.3103 14.8141 30.1822 14.3989 29.7528 13.9695C28.8733 13.09 27.5236 13.5321 26.5078 12.996C26.0031 12.7296 26.1167 11.8054 26.1167 11.3485V9.79261C26.1167 9.64958 26.1942 9.14162 26.0751 9.0396C25.9805 8.95848 25.5755 9.02712 25.4594 9.02712C23.6117 9.02712 22.304 10.4245 21.5529 11.9892C21.3492 12.4137 21.2875 12.8905 21.0246 13.2955C20.8215 13.6083 20.5531 13.8053 20.2799 14.0444C19.9046 14.3728 19.7831 14.5032 19.2689 14.606C18.7341 14.713 18.214 14.7014 17.6922 14.9056C17.3008 15.0587 17.1701 15.3983 16.9018 15.7002C16.5101 16.1408 16.6011 16.4404 16.5273 16.9566C16.5107 17.0728 16.0796 17.1458 15.9699 17.2312C15.576 17.5375 15.0885 17.6691 14.6926 17.955C14.2344 18.286 14.0264 18.7868 13.8356 19.303C13.6236 19.8766 13.6859 20.5409 13.6859 21.1418C13.6859 21.3117 13.7782 21.7162 13.5735 21.7617C13.4553 21.788 13.2693 21.8012 13.1617 21.8491C12.6678 22.0686 12.0384 22.687 12.0384 23.2552C12.0384 23.6218 11.947 24.1219 12.055 24.47Z" fill="#FC5185" stroke="black" stroke-linecap="round" stroke-linejoin="round"/>
<path d="M35.2962 25.7742H13.445C12.1195 25.7742 11.1606 27.0403 11.5199 28.3162L14.737 39.7425C14.9797 40.6048 15.7663 41.2005 16.6621 41.2005H32.19C33.0925 41.2005 33.8832 40.596 34.12 39.7251L37.2261 28.2988C37.5719 27.0269 36.6142 25.7742 35.2962 25.7742Z" fill="#54C2F1" stroke="black"/>
<path d="M26.3961 35.8088H22.8166C22.4543 35.8088 22.2156 36.186 22.3706 36.5134L22.403 36.5817C23.3034 38.4825 26.0284 38.4227 26.8446 36.4843C26.9797 36.1635 26.7441 35.8088 26.3961 35.8088Z" fill="#211E1F" stroke="#211E1F"/>
<rect x="9.40552" y="24.6751" width="29.9055" height="2.4977" rx="1.24885" fill="white" stroke="black"/>
<rect x="15.8963" y="29.0691" width="5.99078" height="5.99078" rx="2.99539" fill="#211E1F"/>
<rect x="16.4954" y="31.1659" width="1.79724" height="1.79724" rx="0.898618" fill="white"/>
<rect x="17.6935" y="29.6682" width="1.19816" height="1.19816" rx="0.599078" fill="white"/>
<rect x="26.9792" y="29.0691" width="5.99078" height="5.99078" rx="2.99539" fill="#211E1F"/>
<rect x="27.5783" y="31.1659" width="1.79724" height="1.79724" rx="0.898618" fill="white"/>
<rect x="28.7765" y="29.6682" width="1.19816" height="1.19816" rx="0.599078" fill="white"/>
</svg>
