<svg width="1440" height="271" viewBox="0 0 1440 271" fill="none" xmlns="http://www.w3.org/2000/svg">
<path fill-rule="evenodd" clip-rule="evenodd" d="M0 152.795L30 126.117C60 99.4387 120 46.0819 180 19.4035C240 -7.27488 300 -7.27488 360 24.591C420 57.1979 480 120.93 540 157.983C600 195.777 660 206.152 720 169.099C780 131.305 840 46.0819 900 51.2694C960 57.1979 1020 152.795 1080 184.661C1140 217.268 1200 184.661 1260 157.983C1320 131.305 1380 110.555 1410 99.4387L1440 89.0638V281H1410C1380 281 1320 281 1260 281C1200 281 1140 281 1080 281C1020 281 960 281 900 281C840 281 780 281 720 281C660 281 600 281 540 281C480 281 420 281 360 281C300 281 240 281 180 281C120 281 60 281 30 281H0V152.795Z" fill="#FC5185"/>
</svg>
